solid Ěîäĺëü_16.stl_Glance_2_2_2
  facet normal  3.01511344577764E-0001 -3.01511344577764E-0001 -9.04534033733291E-0001
    outer loop
      vertex -21 -41 -8
      vertex 11 -12 -7
      vertex 10 -31 -1
    endloop
  endfacet
  facet normal  3.16755818474835E-0001 -3.70836080165661E-0001 -8.73009938723326E-0001
    outer loop
      vertex -21 -41 -8
      vertex 10 -31 -1
      vertex -15 -50 -2
    endloop
  endfacet
  facet normal -4.08963324360491E-0001  2.94300710053811E-0001  8.63791694443654E-0001
    outer loop
      vertex 11 -12 -7
      vertex 10 -31 -1
      vertex 21 -48 10
    endloop
  endfacet
  facet normal  4.08963324360491E-0001 -2.94300710053811E-0001 -8.63791694443654E-0001
    outer loop
      vertex 11 -12 -7
      vertex 21 -48 10
      vertex 10 -31 -1
    endloop
  endfacet
  facet normal  4.50062496757967E-0001 -2.90362901134172E-0001 -8.44472104131884E-0001
    outer loop
      vertex 10 -31 -1
      vertex 11 -12 -7
      vertex 28 -38 11
    endloop
  endfacet
  facet normal  4.70286513310689E-0001 -2.44400865185083E-0001 -8.47996941323999E-0001
    outer loop
      vertex 10 -31 -1
      vertex 28 -38 11
      vertex 21 -48 10
    endloop
  endfacet
  facet normal  4.88367585258257E-0001 -2.69797477170646E-0001 -8.29883379145151E-0001
    outer loop
      vertex 11 -12 -7
      vertex 24 -10 0
      vertex 35 -27 12
    endloop
  endfacet
  facet normal  5.03125666947499E-0001 -2.44824543291417E-0001 -8.28809692426907E-0001
    outer loop
      vertex 11 -12 -7
      vertex 35 -27 12
      vertex 28 -38 11
    endloop
  endfacet
  facet normal                     Nan                     Nan                     Nan
    outer loop
      vertex 24 -10 0
      vertex 11 -12 -7
      vertex 24 -10 0
    endloop
  endfacet
  facet normal                     Nan                     Nan                     Nan
    outer loop
      vertex 24 -10 0
      vertex 24 -10 0
      vertex 35 -27 12
    endloop
  endfacet
  facet normal  4.60663374638832E-0001 -2.84946417302370E-0001 -8.40591931041993E-0001
    outer loop
      vertex 11 -12 -7
      vertex 32 19 -6
      vertex 38 11 0
    endloop
  endfacet
  facet normal  4.86664263392288E-0001 -3.24442842261525E-0001 -8.11107105653813E-0001
    outer loop
      vertex 11 -12 -7
      vertex 38 11 0
      vertex 24 -10 0
    endloop
  endfacet
  facet normal                     Nan                     Nan                     Nan
    outer loop
      vertex 32 19 -6
      vertex 32 19 -6
      vertex 26 29 -13
    endloop
  endfacet
  facet normal  2.85714285714286E-0001 -4.28571428571429E-0001 -8.57142857142857E-0001
    outer loop
      vertex 32 19 -6
      vertex 26 29 -13
      vertex 38 11 0
    endloop
  endfacet
  facet normal  2.67186702448720E-0001 -1.50292520127405E-0001 -9.51852627473567E-0001
    outer loop
      vertex 32 19 -6
      vertex 11 -12 -7
      vertex 2 10 -13
    endloop
  endfacet
  facet normal  3.21412661309535E-0001 -4.05994940601518E-0001 -8.55489339124627E-0001
    outer loop
      vertex 32 19 -6
      vertex 2 10 -13
      vertex 26 29 -13
    endloop
  endfacet
  facet normal -8.16920098910297E-0001 -1.85231882892451E-0001  5.46196577759792E-0001
    outer loop
      vertex 11 -12 -7
      vertex 2 10 -13
      vertex -11 29 -26
    endloop
  endfacet
  facet normal  8.16920098910297E-0001  1.85231882892451E-0001 -5.46196577759792E-0001
    outer loop
      vertex 11 -12 -7
      vertex -11 29 -26
      vertex 2 10 -13
    endloop
  endfacet
  facet normal  5.43049321072326E-0001 -6.84515950931504E-0003 -8.39672899809311E-0001
    outer loop
      vertex 2 10 -13
      vertex 11 -12 -7
      vertex -18 18 -26
    endloop
  endfacet
  facet normal  4.41505251302116E-0001 -2.80957887192256E-0001 -8.52136009506182E-0001
    outer loop
      vertex 2 10 -13
      vertex -18 18 -26
      vertex -11 29 -26
    endloop
  endfacet
  facet normal  1.96223070211708E-0001 -4.66272642087227E-0001 -8.62604387861370E-0001
    outer loop
      vertex 11 -12 -7
      vertex -13 -11 -13
      vertex -25 8 -26
    endloop
  endfacet
  facet normal  3.44720871317682E-0001 -2.41304609922378E-0001 -9.07160187678112E-0001
    outer loop
      vertex 11 -12 -7
      vertex -25 8 -26
      vertex -18 18 -26
    endloop
  endfacet
  facet normal                     Nan                     Nan                     Nan
    outer loop
      vertex -13 -11 -13
      vertex 11 -12 -7
      vertex -13 -11 -13
    endloop
  endfacet
  facet normal                     Nan                     Nan                     Nan
    outer loop
      vertex -13 -11 -13
      vertex -13 -11 -13
      vertex -25 8 -26
    endloop
  endfacet
  facet normal  3.61722953297565E-0001 -3.69629465937949E-0001 -8.55879993321561E-0001
    outer loop
      vertex 11 -12 -7
      vertex -21 -41 -8
      vertex -26 -32 -14
    endloop
  endfacet
  facet normal  2.37337990429746E-0001 -1.00915366009498E-0001 -9.66171189387232E-0001
    outer loop
      vertex 11 -12 -7
      vertex -26 -32 -14
      vertex -13 -11 -13
    endloop
  endfacet
  facet normal  1.89144180483234E-0001 -2.98116136317195E-0001  9.35602077945872E-0001
    outer loop
      vertex -15 -50 -2
      vertex 10 -31 -1
      vertex -23 -8 13
    endloop
  endfacet
  facet normal  2.67048275602634E-0001 -2.78608807014003E-0001  9.22530406627280E-0001
    outer loop
      vertex -15 -50 -2
      vertex -23 -8 13
      vertex -38 -29 11
    endloop
  endfacet
  facet normal -7.54582677904545E-0001 -6.22530709271250E-0001 -2.07510236423750E-0001
    outer loop
      vertex 10 -31 -1
      vertex 21 -48 10
      vertex -1 -26 24
    endloop
  endfacet
  facet normal -5.98058362884822E-0001 -7.94647844545972E-0001 -1.04216110760127E-0001
    outer loop
      vertex 10 -31 -1
      vertex -1 -26 24
      vertex -23 -8 13
    endloop
  endfacet
  facet normal  2.94465844923554E-0001 -2.96961318185618E-0001  9.08352267391301E-0001
    outer loop
      vertex 21 -48 10
      vertex 28 -38 11
      vertex 7 -16 25
    endloop
  endfacet
  facet normal  2.71644339883075E-0001 -3.08477470714679E-0001  9.11619988082185E-0001
    outer loop
      vertex 21 -48 10
      vertex 7 -16 25
      vertex -1 -26 24
    endloop
  endfacet
  facet normal  4.38871831272911E-0001 -3.54348367472202E-0001  8.25729223283848E-0001
    outer loop
      vertex 28 -38 11
      vertex 35 -27 12
      vertex 24 -8 26
    endloop
  endfacet
  facet normal  1.48170482424573E-0001 -4.26401721644048E-0001  8.92315571934650E-0001
    outer loop
      vertex 28 -38 11
      vertex 24 -8 26
      vertex 7 -16 25
    endloop
  endfacet
  facet normal  7.53247859325286E-0001  6.27206384856513E-0001  1.98065174165215E-0001
    outer loop
      vertex 35 -27 12
      vertex 24 -10 0
      vertex 2 12 14
    endloop
  endfacet
  facet normal  7.25072362918583E-0001  6.28015432449167E-0001 -2.82606944602125E-0001
    outer loop
      vertex 35 -27 12
      vertex 2 12 14
      vertex 24 -8 26
    endloop
  endfacet
  facet normal  4.68871494723562E-0001 -3.12580996482375E-0001  8.26106919274847E-0001
    outer loop
      vertex 24 -10 0
      vertex 38 11 0
      vertex 26 30 14
    endloop
  endfacet
  facet normal  2.48281766580710E-0001 -3.31042355440947E-0001  9.10366477462605E-0001
    outer loop
      vertex 24 -10 0
      vertex 26 30 14
      vertex 2 12 14
    endloop
  endfacet
  facet normal  7.43946609434698E-0001  6.38451418041564E-0001  1.97289708579368E-0001
    outer loop
      vertex 38 11 0
      vertex 26 29 -13
      vertex 4 50 2
    endloop
  endfacet
  facet normal  7.22732161861206E-0001  6.43060899923750E-0001 -2.53240796872627E-0001
    outer loop
      vertex 38 11 0
      vertex 4 50 2
      vertex 26 30 14
    endloop
  endfacet
  facet normal -3.23080921300217E-0001  4.08102216379221E-0001 -8.53856720579144E-0001
    outer loop
      vertex 26 29 -13
      vertex 2 10 -13
      vertex -11 29 1
    endloop
  endfacet
  facet normal -3.39216568597697E-0001  2.84988069536161E-0001 -8.96500931293915E-0001
    outer loop
      vertex 26 29 -13
      vertex -11 29 1
      vertex 4 50 2
    endloop
  endfacet
  facet normal  8.25307261249832E-0001  5.64683915591990E-0001  0.00000000000000E+0000
    outer loop
      vertex 2 10 -13
      vertex -11 29 -26
      vertex -24 48 -12
    endloop
  endfacet
  facet normal  8.25307261249832E-0001  5.64683915591990E-0001  0.00000000000000E+0000
    outer loop
      vertex 2 10 -13
      vertex -24 48 -12
      vertex -11 29 1
    endloop
  endfacet
  facet normal -4.57295534317555E-0001  2.91006249111171E-0001 -8.40354780596546E-0001
    outer loop
      vertex -11 29 -26
      vertex -18 18 -26
      vertex -31 38 -12
    endloop
  endfacet
  facet normal -4.46364942438478E-0001  3.12455459706935E-0001 -8.38528427580856E-0001
    outer loop
      vertex -11 29 -26
      vertex -31 38 -12
      vertex -24 48 -12
    endloop
  endfacet
  facet normal -4.23226058705458E-0001  2.96258241093820E-0001 -8.56218872611811E-0001
    outer loop
      vertex -18 18 -26
      vertex -25 8 -26
      vertex -38 27 -13
    endloop
  endfacet
  facet normal -4.03354723401827E-0001  3.34122196250767E-0001 -8.51861094945649E-0001
    outer loop
      vertex -18 18 -26
      vertex -38 27 -13
      vertex -31 38 -12
    endloop
  endfacet
  facet normal -7.28688245053385E-0001 -6.35266675174746E-0001 -2.55831375975350E-0001
    outer loop
      vertex -25 8 -26
      vertex -13 -11 -13
      vertex -35 9 0
    endloop
  endfacet
  facet normal -8.69594949258241E-0001 -3.76041059138699E-0001 -3.19996478209374E-0001
    outer loop
      vertex -25 8 -26
      vertex -35 9 0
      vertex -38 27 -13
    endloop
  endfacet
  facet normal -4.22304123163993E-0001  3.02122712619299E-0001 -8.54623363873377E-0001
    outer loop
      vertex -13 -11 -13
      vertex -26 -32 -14
      vertex -38 -12 -1
    endloop
  endfacet
  facet normal -4.33754936653225E-0001  1.04581229785955E-0001 -8.94941015545390E-0001
    outer loop
      vertex -13 -11 -13
      vertex -38 -12 -1
      vertex -35 9 0
    endloop
  endfacet
  facet normal -8.06889385565237E-0001  5.57849451748806E-0001  1.94251148376816E-0001
    outer loop
      vertex -38 -29 11
      vertex -23 -8 13
      vertex -12 10 7
    endloop
  endfacet
  facet normal -8.32298238944133E-0001  5.43878057131809E-0001 -1.07127496101720E-0001
    outer loop
      vertex -38 -29 11
      vertex -12 10 7
      vertex -32 -21 5
    endloop
  endfacet
  facet normal                     Nan                     Nan                     Nan
    outer loop
      vertex -23 -8 13
      vertex -1 -26 24
      vertex -23 -8 13
    endloop
  endfacet
  facet normal                     Nan                     Nan                     Nan
    outer loop
      vertex -23 -8 13
      vertex -23 -8 13
      vertex -12 10 7
    endloop
  endfacet
  facet normal -4.42765096190354E-0001  2.68668140892205E-0001  8.55439360600781E-0001
    outer loop
      vertex -1 -26 24
      vertex 7 -16 25
      vertex -12 10 7
    endloop
  endfacet
  facet normal -1.38062631745976E-0001  3.88109398130356E-0001  9.11213369523444E-0001
    outer loop
      vertex -1 -26 24
      vertex -12 10 7
      vertex -23 -8 13
    endloop
  endfacet
  facet normal -2.07395642368639E-0001  3.25396611302520E-0001  9.22553029846705E-0001
    outer loop
      vertex 7 -16 25
      vertex 24 -8 26
      vertex 2 12 14
    endloop
  endfacet
  facet normal -4.61341824941708E-0001  2.51833381504877E-0001  8.50731255167737E-0001
    outer loop
      vertex 7 -16 25
      vertex 2 12 14
      vertex -12 10 7
    endloop
  endfacet
  facet normal -4.51278920158327E-0001  3.85238102574181E-0002  8.91551037385962E-0001
    outer loop
      vertex 24 -8 26
      vertex 2 12 14
      vertex -12 10 7
    endloop
  endfacet
  facet normal  4.51278920158327E-0001 -3.85238102574181E-0002 -8.91551037385962E-0001
    outer loop
      vertex 24 -8 26
      vertex -12 10 7
      vertex 2 12 14
    endloop
  endfacet
  facet normal -2.91385758707179E-0001  3.88514344942906E-0001  8.74157276121538E-0001
    outer loop
      vertex 2 12 14
      vertex 26 30 14
      vertex 20 39 8
    endloop
  endfacet
  facet normal -4.47812542548047E-0001  4.67863850423332E-0001  7.61949699260855E-0001
    outer loop
      vertex 2 12 14
      vertex 20 39 8
      vertex -12 10 7
    endloop
  endfacet
  facet normal -1.21045506533760E-0001 -6.05227532668802E-0001 -7.86795792469443E-0001
    outer loop
      vertex 26 30 14
      vertex 4 50 2
      vertex 20 39 8
    endloop
  endfacet
  facet normal                     Nan                     Nan                     Nan
    outer loop
      vertex 26 30 14
      vertex 20 39 8
      vertex 20 39 8
    endloop
  endfacet
  facet normal -4.60835596587196E-0001  2.89214064065068E-0001  8.39038603441516E-0001
    outer loop
      vertex 4 50 2
      vertex -11 29 1
      vertex -12 10 7
    endloop
  endfacet
  facet normal -2.16369533361172E-0001  2.05843447954413E-0001  9.54365076879549E-0001
    outer loop
      vertex 4 50 2
      vertex -12 10 7
      vertex 20 39 8
    endloop
  endfacet
  facet normal                     Nan                     Nan                     Nan
    outer loop
      vertex -11 29 1
      vertex -24 48 -12
      vertex -11 29 1
    endloop
  endfacet
  facet normal                     Nan                     Nan                     Nan
    outer loop
      vertex -11 29 1
      vertex -11 29 1
      vertex -12 10 7
    endloop
  endfacet
  facet normal -4.21925416139250E-0001  2.95347791297475E-0001  8.57174792788160E-0001
    outer loop
      vertex -24 48 -12
      vertex -31 38 -12
      vertex -12 10 7
    endloop
  endfacet
  facet normal -4.27641679776027E-0001  2.92596938794123E-0001  8.55283359552053E-0001
    outer loop
      vertex -24 48 -12
      vertex -12 10 7
      vertex -11 29 1
    endloop
  endfacet
  facet normal -6.63130046283422E-0001  3.62456174366094E-0001  6.54892405956920E-0001
    outer loop
      vertex -31 38 -12
      vertex -38 27 -13
      vertex -35 9 0
    endloop
  endfacet
  facet normal -2.82745473315997E-0001  3.99788948316572E-0001  8.71908133993050E-0001
    outer loop
      vertex -31 38 -12
      vertex -35 9 0
      vertex -12 10 7
    endloop
  endfacet
  facet normal -2.67261241912424E-0001  5.34522483824849E-0001  8.01783725737273E-0001
    outer loop
      vertex -38 27 -13
      vertex -35 9 0
      vertex -12 10 7
    endloop
  endfacet
  facet normal  2.67261241912424E-0001 -5.34522483824849E-0001 -8.01783725737273E-0001
    outer loop
      vertex -38 27 -13
      vertex -12 10 7
      vertex -35 9 0
    endloop
  endfacet
  facet normal -6.60480417372091E-0001  5.87093704330748E-0002  7.48544473021704E-0001
    outer loop
      vertex -35 9 0
      vertex -38 -12 -1
      vertex -32 -21 5
    endloop
  endfacet
  facet normal -2.93856824860386E-0001  1.28476937380820E-0001  9.47175719201151E-0001
    outer loop
      vertex -35 9 0
      vertex -32 -21 5
      vertex -12 10 7
    endloop
  endfacet
endsolid Ěîäĺëü_16.stl_Glance_2_2_2
