solid Ěîäĺëü_1.stl_Glance_2_2_2
  facet normal  0.00000000000000E+0000  1.00000000000000E+0000  0.00000000000000E+0000
    outer loop
      vertex -35 0 35
      vertex -14 0 35
      vertex -14 0 14
    endloop
  endfacet
  facet normal  0.00000000000000E+0000  1.00000000000000E+0000  0.00000000000000E+0000
    outer loop
      vertex -35 0 35
      vertex -14 0 14
      vertex -35 0 14
    endloop
  endfacet
  facet normal  0.00000000000000E+0000  1.00000000000000E+0000  0.00000000000000E+0000
    outer loop
      vertex -14 0 35
      vertex 0 0 49
      vertex 0 0 14
    endloop
  endfacet
  facet normal  0.00000000000000E+0000  1.00000000000000E+0000  0.00000000000000E+0000
    outer loop
      vertex -14 0 35
      vertex 0 0 14
      vertex -14 0 14
    endloop
  endfacet
  facet normal  0.00000000000000E+0000  1.00000000000000E+0000  0.00000000000000E+0000
    outer loop
      vertex 0 0 49
      vertex 14 0 35
      vertex 14 0 14
    endloop
  endfacet
  facet normal  0.00000000000000E+0000  1.00000000000000E+0000  0.00000000000000E+0000
    outer loop
      vertex 0 0 49
      vertex 14 0 14
      vertex 0 0 14
    endloop
  endfacet
  facet normal  0.00000000000000E+0000  1.00000000000000E+0000  0.00000000000000E+0000
    outer loop
      vertex 14 0 35
      vertex 35 0 35
      vertex 35 0 14
    endloop
  endfacet
  facet normal  0.00000000000000E+0000  1.00000000000000E+0000  0.00000000000000E+0000
    outer loop
      vertex 14 0 35
      vertex 35 0 14
      vertex 14 0 14
    endloop
  endfacet
  facet normal  0.00000000000000E+0000  1.00000000000000E+0000  0.00000000000000E+0000
    outer loop
      vertex -35 0 14
      vertex -14 0 14
      vertex -14 0 0
    endloop
  endfacet
  facet normal  0.00000000000000E+0000  1.00000000000000E+0000  0.00000000000000E+0000
    outer loop
      vertex -35 0 14
      vertex -14 0 0
      vertex -49 0 0
    endloop
  endfacet
  facet normal  0.00000000000000E+0000  1.00000000000000E+0000  0.00000000000000E+0000
    outer loop
      vertex -14 0 14
      vertex 0 0 14
      vertex 0 0 0
    endloop
  endfacet
  facet normal  0.00000000000000E+0000  1.00000000000000E+0000  0.00000000000000E+0000
    outer loop
      vertex -14 0 14
      vertex 0 0 0
      vertex -14 0 0
    endloop
  endfacet
  facet normal  0.00000000000000E+0000  1.00000000000000E+0000  0.00000000000000E+0000
    outer loop
      vertex 0 0 14
      vertex 14 0 14
      vertex 14 0 0
    endloop
  endfacet
  facet normal  0.00000000000000E+0000  1.00000000000000E+0000  0.00000000000000E+0000
    outer loop
      vertex 0 0 14
      vertex 14 0 0
      vertex 0 0 0
    endloop
  endfacet
  facet normal  0.00000000000000E+0000  1.00000000000000E+0000  0.00000000000000E+0000
    outer loop
      vertex 14 0 14
      vertex 35 0 14
      vertex 49 0 0
    endloop
  endfacet
  facet normal  0.00000000000000E+0000  1.00000000000000E+0000  0.00000000000000E+0000
    outer loop
      vertex 14 0 14
      vertex 49 0 0
      vertex 14 0 0
    endloop
  endfacet
  facet normal  0.00000000000000E+0000  1.00000000000000E+0000  0.00000000000000E+0000
    outer loop
      vertex -49 0 0
      vertex -14 0 0
      vertex -14 0 -14
    endloop
  endfacet
  facet normal  0.00000000000000E+0000  1.00000000000000E+0000  0.00000000000000E+0000
    outer loop
      vertex -49 0 0
      vertex -14 0 -14
      vertex -35 0 -14
    endloop
  endfacet
  facet normal  0.00000000000000E+0000  1.00000000000000E+0000  0.00000000000000E+0000
    outer loop
      vertex -14 0 0
      vertex 0 0 0
      vertex 0 0 -14
    endloop
  endfacet
  facet normal  0.00000000000000E+0000  1.00000000000000E+0000  0.00000000000000E+0000
    outer loop
      vertex -14 0 0
      vertex 0 0 -14
      vertex -14 0 -14
    endloop
  endfacet
  facet normal  0.00000000000000E+0000  1.00000000000000E+0000  0.00000000000000E+0000
    outer loop
      vertex 0 0 0
      vertex 14 0 0
      vertex 14 0 -14
    endloop
  endfacet
  facet normal  0.00000000000000E+0000  1.00000000000000E+0000  0.00000000000000E+0000
    outer loop
      vertex 0 0 0
      vertex 14 0 -14
      vertex 0 0 -14
    endloop
  endfacet
  facet normal  0.00000000000000E+0000  1.00000000000000E+0000  0.00000000000000E+0000
    outer loop
      vertex 14 0 0
      vertex 49 0 0
      vertex 35 0 -14
    endloop
  endfacet
  facet normal  0.00000000000000E+0000  1.00000000000000E+0000  0.00000000000000E+0000
    outer loop
      vertex 14 0 0
      vertex 35 0 -14
      vertex 14 0 -14
    endloop
  endfacet
  facet normal  0.00000000000000E+0000  1.00000000000000E+0000  0.00000000000000E+0000
    outer loop
      vertex -35 0 -14
      vertex -14 0 -14
      vertex -14 0 -35
    endloop
  endfacet
  facet normal  0.00000000000000E+0000  1.00000000000000E+0000  0.00000000000000E+0000
    outer loop
      vertex -35 0 -14
      vertex -14 0 -35
      vertex -35 0 -35
    endloop
  endfacet
  facet normal  0.00000000000000E+0000  1.00000000000000E+0000  0.00000000000000E+0000
    outer loop
      vertex -14 0 -14
      vertex 0 0 -14
      vertex 0 0 -49
    endloop
  endfacet
  facet normal  0.00000000000000E+0000  1.00000000000000E+0000  0.00000000000000E+0000
    outer loop
      vertex -14 0 -14
      vertex 0 0 -49
      vertex -14 0 -35
    endloop
  endfacet
  facet normal  0.00000000000000E+0000  1.00000000000000E+0000  0.00000000000000E+0000
    outer loop
      vertex 0 0 -14
      vertex 14 0 -14
      vertex 14 0 -35
    endloop
  endfacet
  facet normal  0.00000000000000E+0000  1.00000000000000E+0000  0.00000000000000E+0000
    outer loop
      vertex 0 0 -14
      vertex 14 0 -35
      vertex 0 0 -49
    endloop
  endfacet
  facet normal  0.00000000000000E+0000  1.00000000000000E+0000  0.00000000000000E+0000
    outer loop
      vertex 14 0 -14
      vertex 35 0 -14
      vertex 35 0 -35
    endloop
  endfacet
  facet normal  0.00000000000000E+0000  1.00000000000000E+0000  0.00000000000000E+0000
    outer loop
      vertex 14 0 -14
      vertex 35 0 -35
      vertex 14 0 -35
    endloop
  endfacet
endsolid Ěîäĺëü_1.stl_Glance_2_2_2
